<?xml version="1.0" encoding="utf-8"?>
<!-- Generator: Adobe Illustrator 16.0.0, SVG Export Plug-In . SVG Version: 6.00 Build 0)  -->
<!DOCTYPE svg PUBLIC "-//W3C//DTD SVG 1.1//EN" "http://www.w3.org/Graphics/SVG/1.1/DTD/svg11.dtd">
<svg version="1.1" id="Layer_1" xmlns="http://www.w3.org/2000/svg" xmlns:xlink="http://www.w3.org/1999/xlink" x="0px" y="0px"
	 width="47px" height="47px" viewBox="0 0 47 47" enable-background="new 0 0 47 47" xml:space="preserve">
<rect fill-rule="evenodd" clip-rule="evenodd" fill="#FFFFFF" width="47" height="47"/>
<g>
	<g>
		<circle fill-rule="evenodd" clip-rule="evenodd" fill="#58595B" cx="23.5" cy="23.5" r="23.066"/>
		<path fill-rule="evenodd" clip-rule="evenodd" fill="#3E3E3F" d="M39.662,7.049L7.048,39.661c0.048,0.05,0.093,0.101,0.142,0.15
			c9.008,9.008,23.613,9.008,32.621,0c9.008-9.009,9.008-23.614,0-32.622C39.762,7.141,39.711,7.096,39.662,7.049z"/>
	</g>
	<path fill-rule="evenodd" clip-rule="evenodd" fill="#FFFFFF" d="M20.047,23.676c-0.944-0.051-1.849-0.101-2.769-0.15
		c0-1.559,0-3.103,0-4.672c0.901,0,1.805,0,2.732,0c0-0.116,0-0.205,0-0.293c0.01-1.269,0.002-2.537,0.036-3.804
		c0.028-1.046,0.271-2.037,0.934-2.884c0.701-0.897,1.666-1.344,2.746-1.594c1.233-0.284,2.486-0.274,3.74-0.265
		c0.712,0.006,1.425,0.001,2.156,0.001c0,1.673,0,3.311,0,4.978c-0.101,0-0.195,0-0.29,0c-0.968,0.005-1.937-0.005-2.904,0.021
		c-0.555,0.016-0.788,0.24-0.802,0.795c-0.026,0.995-0.008,1.991-0.008,3.014c1.354,0,2.717,0,4.105,0
		c-0.139,1.548-0.276,3.069-0.415,4.614c-1.228,0-2.447,0-3.689,0c0,4.49,0,8.954,0,13.444c-1.861,0.196-3.706,0.057-5.571,0.094
		C20.047,32.536,20.047,28.117,20.047,23.676z"/>
</g>
</svg>
