<?xml version="1.0" encoding="utf-8"?>
<!-- Generator: Adobe Illustrator 16.0.0, SVG Export Plug-In . SVG Version: 6.00 Build 0)  -->
<!DOCTYPE svg PUBLIC "-//W3C//DTD SVG 1.1//EN" "http://www.w3.org/Graphics/SVG/1.1/DTD/svg11.dtd">
<svg version="1.1" id="Layer_1" xmlns="http://www.w3.org/2000/svg" xmlns:xlink="http://www.w3.org/1999/xlink" x="0px" y="0px"
	 width="47px" height="47px" viewBox="0 0 47 47" enable-background="new 0 0 47 47" xml:space="preserve">
<g>
	<g>
		<circle fill-rule="evenodd" clip-rule="evenodd" fill="#58595B" cx="23.5" cy="23.5" r="23.067"/>
		<path fill-rule="evenodd" clip-rule="evenodd" fill="#3E3E3F" d="M39.661,7.048L7.048,39.662c0.048,0.049,0.093,0.1,0.142,0.148
			c9.007,9.008,23.612,9.008,32.62,0s9.009-23.613,0-32.621C39.762,7.141,39.71,7.096,39.661,7.048z"/>
	</g>
	<path fill-rule="evenodd" clip-rule="evenodd" fill="#FFFFFF" d="M10.995,31.568c2.647,0.037,5.039-0.561,7.064-2.061
		c-0.905-0.434-1.87-0.795-2.726-1.332c-0.878-0.551-1.41-1.432-1.736-2.488c0.648,0,1.248,0,1.848,0
		c-2.27-1.012-3.54-2.653-3.702-5.176c0.733,0.208,1.376,0.391,2.13,0.604c-2.277-2.932-2.651-4.967-1.306-6.899
		c2.769,3.203,6.223,5.04,10.521,5.348c0-0.646-0.055-1.21,0.01-1.76c0.236-2.006,1.317-3.442,3.174-4.184
		c1.896-0.758,3.721-0.492,5.311,0.84c0.354,0.296,0.645,0.411,1.066,0.246c0.853-0.329,1.711-0.644,2.637-0.991
		c-0.342,1.085-1.002,1.9-1.813,2.713c0.805-0.225,1.609-0.449,2.416-0.674c0.039,0.035,0.078,0.069,0.117,0.104
		c-0.655,0.684-1.273,1.41-1.979,2.035c-0.409,0.362-0.581,0.707-0.581,1.252c0.009,6.658-4.577,12.6-11.026,14.184
		c-3.872,0.951-7.599,0.461-11.087-1.539C11.216,31.723,11.106,31.643,10.995,31.568z"/>
</g>
</svg>
